<?xml version="1.0" standalone="no"?><!DOCTYPE svg PUBLIC "-//W3C//DTD SVG 1.1//EN" "http://www.w3.org/Graphics/SVG/1.1/DTD/svg11.dtd"><svg t="1614237869333" class="icon" viewBox="0 0 1024 1024" version="1.1" xmlns="http://www.w3.org/2000/svg" p-id="887" xmlns:xlink="http://www.w3.org/1999/xlink" width="48" height="48"><defs><style type="text/css"></style></defs><path d="M27.307 348.16l211.627 518.827h40.96l-218.453-518.827zM61.44 273.067l252.587 593.92h34.133l-245.76-593.92zM109.227 204.8l273.067 662.187h40.96l-279.893-662.187zM327.68 580.267l20.48 40.96 81.92-157.013-20.48-47.787zM361.813 662.187l20.48 40.96 81.92-157.013-20.48-47.787zM395.947 744.107l20.48 47.787 81.92-163.84-20.48-40.96zM409.6 348.16l211.627 518.827h34.133l-211.627-518.827zM921.6 204.8h-40.96l-177.493 443.733-177.493-443.733h-40.96l218.453 532.48z" fill="#8a8a8a" p-id="888"></path><path d="M928.427 273.067l-225.28 546.133-225.28-546.133h-34.133l238.933 593.92h34.133l252.587-593.92zM962.56 348.16l-211.627 518.827h34.133l211.627-518.827z" fill="#515151" p-id="889"></path></svg>